<svg width="150" height="150" viewBox="0 0 150 150" fill="none" xmlns="http://www.w3.org/2000/svg">
<path d="M118.413 11.5386H31.5865C28.1755 11.5386 25.3846 14.6234 25.3846 18.3938V38.9594C25.3846 42.7298 28.1755 45.8146 31.5865 45.8146H118.413C121.825 45.8146 124.615 42.7298 124.615 38.9594V18.3938C124.615 14.6234 121.825 11.5386 118.413 11.5386ZM118.413 52.6698H31.5865C28.1755 52.6698 25.3846 55.7546 25.3846 59.525V80.0906C25.3846 83.861 28.1755 86.9458 31.5865 86.9458H109.421C113.452 82.4899 124.615 83.861 124.615 80.0906V59.525C124.615 55.7546 121.825 52.6698 118.413 52.6698ZM107.25 93.801H31.5865C28.1755 93.801 25.3846 96.8859 25.3846 100.656V121.222C25.3846 124.992 28.1755 128.077 31.5865 128.077H118.413C121.825 128.077 124.615 124.992 124.615 121.222V112.996C124.615 102.37 116.863 93.801 107.25 93.801Z" fill="#173356"/>
<path d="M134.375 143.75L128.125 150H121.875L115.625 143.75V110.625H134.375V125L131.25 128.125L134.375 131.25V134.375L131.25 137.5L134.375 140.625V143.75Z" fill="#FFA000"/>
<path d="M148.438 89.0625C147.5 86.25 145.312 84.0625 142.188 83.4375C138.125 82.5 131.875 81.25 125 81.25C118.125 81.25 111.875 82.5 107.812 83.125C104.688 83.75 102.5 85.9375 101.562 88.75C100.937 91.875 100 95.625 100 100C100 104.375 100.937 108.125 101.562 110.938C102.5 113.75 104.688 115.938 107.812 116.563C111.875 117.5 117.813 118.438 125 118.438C132.187 118.438 138.125 117.188 142.188 116.563C145.312 115.938 147.5 113.75 148.438 110.938C149.375 108.125 150 104.375 150 100C150 95.625 149.063 91.875 148.438 89.0625ZM134.063 96.875H116.25C114.375 96.875 112.812 95.3125 112.812 93.4375V89.0625C112.812 88.125 118.437 87.1875 125.312 87.1875C132.187 87.1875 137.812 88.125 137.812 89.0625V93.4375C137.5 95.3125 135.938 96.875 134.063 96.875Z" fill="#FFA000"/>
<path d="M121.875 115.938H125V150H121.875V115.938Z" fill="#D68600"/>
</svg>
