<svg width="150" height="144" viewBox="0 0 150 144" fill="none" xmlns="http://www.w3.org/2000/svg">
<path d="M71.168 1.60654e-06C48.6908 1.60654e-06 28.6511 10.4202 15.6096 26.6939L39.0535 67.307C39.9963 59.4525 43.7849 52.2157 49.7027 46.9657C55.6204 41.7157 63.257 38.8163 71.168 38.8162H134.573C128.609 27.1306 119.531 17.321 108.342 10.471C97.1524 3.62098 84.2874 -0.00278554 71.168 1.60654e-06ZM11.4522 32.4407C3.95662 43.9645 -0.0225992 57.4209 9.65454e-05 71.1679C9.65454e-05 106.823 26.2136 136.352 60.4276 141.529L83.8714 100.922C76.5988 104.032 68.4382 104.367 60.9349 101.864C53.4316 99.3615 47.1066 94.1941 43.1575 87.3408L11.4522 32.4407ZM90.579 45.2865C96.9132 50.0259 101.288 56.9252 102.873 64.6758C104.458 72.4264 103.143 80.4892 99.1785 87.3349L99.1903 87.3408H99.1785L67.485 142.241C68.7067 142.3 69.9344 142.332 71.168 142.336C110.47 142.336 142.336 110.47 142.336 71.1679C142.336 62.0347 140.616 53.3107 137.485 45.2865H90.579ZM71.168 97.0493C64.3038 97.0493 57.7208 94.3225 52.8671 89.4688C48.0134 84.6151 45.2866 78.0321 45.2866 71.1679C45.2866 64.3037 48.0134 57.7207 52.8671 52.867C57.7208 48.0133 64.3038 45.2865 71.168 45.2865C78.0321 45.2865 84.6152 48.0133 89.4689 52.867C94.3226 57.7207 97.0494 64.3037 97.0494 71.1679C97.0494 78.0321 94.3226 84.6151 89.4689 89.4688C84.6152 94.3225 78.0321 97.0493 71.168 97.0493Z" fill="#173356"/>
<path d="M144.526 119.343H141.241V110.584C141.241 108.175 139.27 106.204 136.861 106.204H128.102V102.92C128.102 101.468 127.525 100.075 126.499 99.0487C125.472 98.0221 124.08 97.4453 122.628 97.4453C121.176 97.4453 119.783 98.0221 118.757 99.0487C117.73 100.075 117.153 101.468 117.153 102.92V106.204H108.394C105.985 106.204 104.036 108.175 104.036 110.584V118.905H107.299C110.562 118.905 113.212 121.555 113.212 124.818C113.212 128.08 110.562 130.73 107.299 130.73H104.015V139.051C104.015 141.46 105.985 143.431 108.394 143.431H116.715V140.146C116.715 136.883 119.365 134.234 122.628 134.234C125.89 134.234 128.54 136.883 128.54 140.146V143.431H136.861C139.27 143.431 141.241 141.46 141.241 139.051V130.292H144.526C145.977 130.292 147.37 129.715 148.397 128.689C149.423 127.662 150 126.269 150 124.818C150 123.366 149.423 121.973 148.397 120.947C147.37 119.92 145.977 119.343 144.526 119.343Z" fill="#4C8CDB"/>
</svg>
