<svg width="154" height="124" viewBox="0 0 154 124" fill="none" xmlns="http://www.w3.org/2000/svg">
<path d="M24.5 43.25C24.5 43.25 5.21428 50.75 2 77" stroke="#173356" stroke-width="4" stroke-linecap="round"/>
<path d="M129.5 43.25C129.5 43.25 148.786 50.75 152 77" stroke="#173356" stroke-width="4" stroke-linecap="round"/>
<path d="M54.5 43.25C54.5 43.25 72.5 47.6251 77 69.5" stroke="#173356" stroke-width="4" stroke-linecap="round"/>
<path d="M99.5 43.25C99.5 43.25 81.5 47.6251 77 69.5" stroke="#173356" stroke-width="4" stroke-linecap="round"/>
<path d="M62 99.5C62 99.5 46.25 102.312 39.5 122" stroke="#173356" stroke-width="4" stroke-linecap="round"/>
<path d="M92 99.5C92 99.5 107.75 102.312 114.5 122" stroke="#173356" stroke-width="4" stroke-linecap="round"/>
<path d="M77 107C87.3553 107 95.75 98.6053 95.75 88.25C95.75 77.8947 87.3553 69.5 77 69.5C66.6447 69.5 58.25 77.8947 58.25 88.25C58.25 98.6053 66.6447 107 77 107Z" fill="#4C8CDB" stroke="#173356" stroke-width="4" stroke-linecap="round" stroke-linejoin="round"/>
<path d="M114.5 47C126.926 47 137 36.9264 137 24.5C137 12.0736 126.926 2 114.5 2C102.074 2 92 12.0736 92 24.5C92 36.9264 102.074 47 114.5 47Z" fill="#4C8CDB" stroke="#173356" stroke-width="4" stroke-linecap="round" stroke-linejoin="round"/>
<path d="M39.5 47C51.9264 47 62 36.9264 62 24.5C62 12.0736 51.9264 2 39.5 2C27.0736 2 17 12.0736 17 24.5C17 36.9264 27.0736 47 39.5 47Z" fill="#4C8CDB" stroke="#173356" stroke-width="4" stroke-linecap="round" stroke-linejoin="round"/>
</svg>
