<svg width="159" height="165" viewBox="0 0 159 165" fill="none" xmlns="http://www.w3.org/2000/svg">
<g clip-path="url(#clip0_783_1400)">
<path d="M4.54166 59.2324C4.77851 52.9576 5.48903 46.5945 6.67324 40.1432C7.54166 35.3436 7.98377 32.9438 9.48377 31.2998C10.9838 29.6557 14.6943 28.4948 22.1075 26.1573C40.3443 20.4228 55.7548 4.69165 79.5259 4.69165C103.297 4.69165 118.739 20.4306 136.976 26.1573C144.389 28.4948 148.092 29.6557 149.592 31.2998C151.092 32.936 151.534 35.3436 152.41 40.1432C153.594 46.5945 154.305 52.9576 154.542 59.2324M138.318 121.565C127.897 137.327 112.518 149.903 92.2917 157.546C87.0259 159.533 84.3969 160.522 79.5496 160.522C74.718 160.522 72.0811 159.525 66.8153 157.538C46.589 149.903 31.2101 137.327 20.7811 121.565M51.9101 82.607L59.8048 90.3986M59.8048 90.3986L67.6996 98.1901M59.8048 90.3986L67.6996 82.607M59.8048 90.3986L51.9101 98.1901M12.4364 82.607L20.3311 90.3986M20.3311 90.3986L28.2259 98.1901M20.3311 90.3986L28.2259 82.607M20.3311 90.3986L12.4364 98.1901M91.3838 82.607L99.2785 90.3986M99.2785 90.3986L107.173 98.1901M99.2785 90.3986L107.173 82.607M99.2785 90.3986L91.3838 98.1901M130.857 82.607L138.752 90.3986M138.752 90.3986L146.647 98.1901M138.752 90.3986L146.647 82.607M138.752 90.3986L130.857 98.1901" stroke="#173356" stroke-width="8" stroke-linecap="round" stroke-linejoin="round"/>
</g>
<defs>
<clipPath id="clip0_783_1400">
<rect width="159" height="165" fill="white"/>
</clipPath>
</defs>
</svg>
